Coordinates
version=1
nRows=35
nColumns=38
inDegrees=no

Units are S.I. units (second, meters, Newtons, ...)
If the header above contains a line with 'inDegrees', this indicates whether rotational values are in degrees (yes) or radians (no).

endheader
time	pelvis_tilt	pelvis_list	pelvis_rotation	pelvis_tx	pelvis_ty	pelvis_tz	hip_flexion_r	hip_adduction_r	hip_rotation_r	knee_angle_r	ankle_angle_r	subtalar_angle_r	mtp_angle_r	hip_flexion_l	hip_adduction_l	hip_rotation_l	knee_angle_l	ankle_angle_l	subtalar_angle_l	mtp_angle_l	lumbar_extension	lumbar_bending	lumbar_rotation	arm_flex_r	arm_add_r	arm_rot_r	elbow_flex_r	pro_sup_r	wrist_flex_r	wrist_dev_r	arm_flex_l	arm_add_l	arm_rot_l	elbow_flex_l	pro_sup_l	wrist_flex_l	wrist_dev_l
5	3.13665	1.34612	-1.33068	0.576904	0.167433	0.844811	0.311207	-0.0418994	-0.133888	1.04039	0.424839	0	0	0.374797	-0.171692	-0.0810367	1.1522	0.440422	0	0	-0.894672	0.181538	0.0472325	0.458965	-0.278292	0.299911	0.318062	0.861051	0	0	0.174538	-0.375503	0.394184	0.861407	1.08878	0	0
5.01	3.14099	1.34552	-1.3339	0.576633	0.167031	0.84401	0.312541	-0.0434459	-0.133559	1.04443	0.427059	0	0	0.376727	-0.169687	-0.0792796	1.15619	0.441573	0	0	-0.900059	0.181909	0.0468433	0.460425	-0.277809	0.294386	0.321631	0.863457	0	0	0.175119	-0.37649	0.394482	0.863175	1.08983	0	0
5.02	-3.13893	1.34548	-1.33666	0.576472	0.166632	0.843163	0.31474	-0.0445454	-0.132698	1.0485	0.429215	0	0	0.379247	-0.168277	-0.0781915	1.16022	0.442783	0	0	-0.904945	0.181911	0.0472319	0.461888	-0.277701	0.291053	0.324982	0.864705	0	0	0.176025	-0.377439	0.395413	0.864642	1.09014	0	0
5.03	-3.13789	1.34547	-1.33792	0.576391	0.166235	0.842325	0.317233	-0.0449273	-0.131554	1.05247	0.431081	0	0	0.381854	-0.167766	-0.0776569	1.16432	0.444031	0	0	-0.909806	0.181758	0.0487265	0.463617	-0.277986	0.289435	0.327325	0.864969	0	0	0.177285	-0.378208	0.3971	0.865862	1.08967	0	0
5.04	-3.13849	1.345	-1.33772	0.576284	0.165839	0.841539	0.319223	-0.0450269	-0.130799	1.05623	0.432677	0	0	0.383938	-0.167829	-0.0772236	1.16835	0.445375	0	0	-0.914985	0.182021	0.0508441	0.465562	-0.278576	0.288967	0.328989	0.864377	0	0	0.178729	-0.378682	0.39925	0.866753	1.08839	0	0
5.05	-3.14031	1.34409	-1.33613	0.576112	0.165427	0.840833	0.320608	-0.0450465	-0.130701	1.05962	0.433942	0	0	0.385576	-0.168209	-0.0765703	1.17222	0.446602	0	0	-0.920581	0.182864	0.0534905	0.467949	-0.279454	0.290259	0.329852	0.86231	0	0	0.180669	-0.378794	0.401968	0.867087	1.0863	0	0
5.06	3.13967	1.34297	-1.33302	0.575928	0.165022	0.840212	0.321589	-0.0446804	-0.130841	1.06255	0.434863	0	0	0.386991	-0.168939	-0.075685	1.17593	0.447756	0	0	-0.926358	0.184135	0.0566633	0.470606	-0.280472	0.292784	0.330055	0.859523	0	0	0.18299	-0.378526	0.405052	0.867043	1.08315	0	0
5.07	3.13595	1.34172	-1.32927	0.575772	0.164648	0.839669	0.322362	-0.0441147	-0.131153	1.06533	0.435399	0	0	0.388125	-0.169913	-0.0748127	1.17931	0.448941	0	0	-0.932108	0.18553	0.0599041	0.473324	-0.281367	0.295375	0.330149	0.855431	0	0	0.185215	-0.378217	0.408171	0.867077	1.07745	0	0
5.08	3.13235	1.34093	-1.3252	0.575587	0.164333	0.839143	0.323488	-0.0437811	-0.131796	1.06813	0.435804	0	0	0.389699	-0.170755	-0.0737822	1.18254	0.450268	0	0	-0.937203	0.187026	0.0628397	0.476005	-0.280688	0.285569	0.328862	0.867528	0	0	0.187166	-0.376595	0.407237	0.864875	1.09483	0	0
5.09	3.13223	1.34021	-1.32411	0.575305	0.164048	0.838621	0.324285	-0.0444948	-0.132427	1.07089	0.436747	0	0	0.39103	-0.170432	-0.0727139	1.18546	0.451558	0	0	-0.941726	0.188408	0.0644897	0.47837	-0.280677	0.284165	0.328632	0.867487	0	0	0.188682	-0.376004	0.408799	0.864085	1.09586	0	0
5.1	3.13338	1.33953	-1.32419	0.575031	0.163815	0.838067	0.324912	-0.0456525	-0.133304	1.07363	0.438035	0	0	0.392274	-0.169853	-0.0718188	1.18839	0.452647	0	0	-0.945784	0.189643	0.0657509	0.480435	-0.280564	0.284314	0.327955	0.86938	0	0	0.18974	-0.375731	0.410431	0.863726	1.09702	0	0
5.11	3.13538	1.33911	-1.32515	0.574765	0.163633	0.837453	0.325795	-0.0470361	-0.134095	1.07658	0.439672	0	0	0.393774	-0.169109	-0.0710719	1.19154	0.453889	0	0	-0.949196	0.190794	0.0667815	0.482188	-0.280145	0.287145	0.325519	0.872779	0	0	0.190271	-0.375575	0.411778	0.863768	1.09818	0	0
5.12	3.13781	1.33896	-1.32658	0.574515	0.163504	0.836831	0.326865	-0.0482896	-0.134427	1.07949	0.441533	0	0	0.395472	-0.168217	-0.0703677	1.19472	0.455029	0	0	-0.951966	0.191729	0.0677618	0.483071	-0.278873	0.28975	0.320318	0.876685	0	0	0.190521	-0.375459	0.412974	0.864111	1.0993	0	0
5.13	3.14053	1.33916	-1.32828	0.57429	0.163457	0.836218	0.328167	-0.0495308	-0.134523	1.08236	0.44329	0	0	0.397355	-0.167213	-0.0697486	1.19772	0.455946	0	0	-0.953971	0.192229	0.0685367	0.482074	-0.276686	0.286226	0.314437	0.880969	0	0	0.190431	-0.375474	0.413897	0.864658	1.10058	0	0
5.14	3.14148	1.33931	-1.32824	0.574054	0.163424	0.835645	0.329414	-0.0502945	-0.134747	1.08493	0.444854	0	0	0.39923	-0.166626	-0.068945	1.2006	0.45693	0	0	-0.955507	0.192966	0.0683609	0.479551	-0.27634	0.29862	0.312916	0.851015	0	0	0.189023	-0.375787	0.413455	0.866013	1.09915	0	0
5.15	-3.14154	1.33952	-1.32733	0.57378	0.16341	0.835103	0.3306	-0.0508541	-0.134975	1.08728	0.446233	0	0	0.401027	-0.166071	-0.067957	1.20316	0.457911	0	0	-0.956943	0.193559	0.0684858	0.475168	-0.274949	0.289114	0.316107	0.844411	0	0	0.187768	-0.37584	0.41261	0.867131	1.10109	0	0
5.16	3.13703	1.33921	-1.3225	0.573592	0.163299	0.834736	0.330958	-0.0451921	-0.127685	1.08725	0.44669	0	0	0.402363	-0.16717	-0.0672985	1.20534	0.458772	0	0	-0.959389	0.194398	0.0701275	0.47065	-0.27443	0.273005	0.324338	0.847965	0	0	0.187077	-0.375476	0.411724	0.867977	1.1031	0	0
5.17	3.13134	1.33865	-1.31664	0.573444	0.163202	0.834502	0.330397	-0.038874	-0.120132	1.08594	0.446905	0	0	0.403266	-0.168725	-0.0667096	1.20704	0.459366	0	0	-0.962717	0.195003	0.0736832	0.466257	-0.269768	0.204286	0.331427	0.935406	0	0	0.188373	-0.374642	0.412493	0.867716	1.10693	0	0
5.18	3.13228	1.3378	-1.31659	0.573166	0.163166	0.83421	0.330203	-0.0393419	-0.120406	1.08774	0.447825	0	0	0.403336	-0.168305	-0.0660054	1.20871	0.460258	0	0	-0.965445	0.195774	0.0731131	0.462604	-0.270155	0.18818	0.342536	0.947372	0	0	0.186524	-0.374665	0.409941	0.869033	1.10769	0	0
5.19	3.13372	1.33675	-1.31726	0.572921	0.163118	0.833957	0.329689	-0.0396792	-0.120363	1.08935	0.448685	0	0	0.403021	-0.167948	-0.0656065	1.21015	0.461086	0	0	-0.968151	0.196449	0.0716616	0.460301	-0.270985	0.180357	0.351418	0.950759	0	0	0.183891	-0.374998	0.406652	0.870617	1.10796	0	0
5.2	3.13542	1.33571	-1.31835	0.572678	0.163065	0.833711	0.329065	-0.0400302	-0.120135	1.09075	0.449592	0	0	0.402653	-0.167535	-0.0653674	1.21154	0.4618	0	0	-0.970712	0.197109	0.069739	0.459045	-0.271887	0.178707	0.358178	0.948529	0	0	0.180891	-0.375384	0.403087	0.872229	1.10783	0	0
5.21	3.13657	1.33489	-1.31906	0.57243	0.163017	0.833466	0.328637	-0.0403152	-0.119883	1.09194	0.450408	0	0	0.402577	-0.167116	-0.0650613	1.21301	0.462329	0	0	-0.97295	0.197707	0.0678776	0.459022	-0.272933	0.182501	0.36252	0.943342	0	0	0.177972	-0.375645	0.399763	0.873454	1.10748	0	0
5.22	3.13709	1.33444	-1.31923	0.572202	0.163003	0.833248	0.328454	-0.040561	-0.119738	1.0929	0.450998	0	0	0.402827	-0.166779	-0.0647329	1.21442	0.462903	0	0	-0.974832	0.198001	0.0665016	0.460391	-0.272878	0.178469	0.362845	0.955424	0	0	0.175873	-0.375933	0.397935	0.873799	1.10752	0	0
5.23	3.13593	1.33415	-1.31769	0.571963	0.163011	0.833081	0.328275	-0.0405346	-0.119955	1.0934	0.451537	0	0	0.403239	-0.166688	-0.064032	1.2157	0.463051	0	0	-0.97637	0.198587	0.0648367	0.463379	-0.273656	0.184772	0.360067	0.959554	0	0	0.173638	-0.376145	0.395945	0.873525	1.10708	0	0
5.24	3.13339	1.33404	-1.31479	0.571724	0.163025	0.83295	0.328322	-0.0403991	-0.120517	1.09375	0.451813	0	0	0.403762	-0.166839	-0.0632877	1.21657	0.463306	0	0	-0.977578	0.199442	0.0629801	0.466995	-0.274441	0.195163	0.355762	0.958231	0	0	0.171375	-0.37624	0.393979	0.872675	1.10618	0	0
5.25	3.12987	1.33402	-1.31101	0.571468	0.163023	0.832851	0.32849	-0.0401611	-0.121273	1.09388	0.451782	0	0	0.404323	-0.167152	-0.0625979	1.21711	0.463876	0	0	-0.978656	0.200524	0.0611812	0.47081	-0.275157	0.208874	0.350906	0.952336	0	0	0.169334	-0.376239	0.392395	0.871392	1.10525	0	0
5.26	3.12664	1.33384	-1.30762	0.571184	0.162992	0.832783	0.328513	-0.0401975	-0.122262	1.09401	0.451649	0	0	0.404615	-0.167332	-0.0620241	1.21753	0.464666	0	0	-0.979747	0.20185	0.0587239	0.474803	-0.278284	0.247653	0.348671	0.903721	0	0	0.166745	-0.376112	0.38979	0.870128	1.10529	0	0
5.27	3.12465	1.33407	-1.30557	0.570944	0.162973	0.832734	0.328875	-0.0405276	-0.122956	1.09408	0.451556	0	0	0.405113	-0.167121	-0.0616846	1.21779	0.465113	0	0	-0.980821	0.202537	0.0573319	0.478704	-0.278356	0.257091	0.344375	0.897931	0	0	0.16585	-0.375923	0.389523	0.868125	1.10585	0	0
5.28	3.12375	1.33442	-1.30495	0.570747	0.162963	0.83272	0.329196	-0.0408624	-0.123035	1.0939	0.451486	0	0	0.405483	-0.166743	-0.061772	1.21776	0.465272	0	0	-0.982072	0.202615	0.056919	0.482749	-0.27634	0.244982	0.33779	0.927003	0	0	0.166449	-0.375778	0.391702	0.865577	1.10471	0	0
5.29	3.1227	1.33453	-1.30464	0.570558	0.162924	0.832744	0.329187	-0.0408484	-0.122562	1.09337	0.451284	0	0	0.40545	-0.166579	-0.0620971	1.21773	0.465243	0	0	-0.98358	0.202686	0.0564135	0.486929	-0.276548	0.252638	0.333738	0.920627	0	0	0.166803	-0.375431	0.39315	0.862906	1.10558	0	0
5.3	3.12096	1.33439	-1.30401	0.570363	0.162866	0.832809	0.328935	-0.0405714	-0.122024	1.09256	0.4511	0	0	0.405009	-0.166702	-0.0625248	1.21768	0.465169	0	0	-0.985197	0.202818	0.0559708	0.491181	-0.278694	0.279307	0.331198	0.882211	0	0	0.166912	-0.374852	0.393803	0.860034	1.11113	0	0
5.31	3.11869	1.33442	-1.303	0.570179	0.162823	0.832916	0.328753	-0.0401454	-0.121413	1.0915	0.45078	0	0	0.404602	-0.166963	-0.0631712	1.21725	0.465138	0	0	-0.986746	0.202615	0.0566169	0.495029	-0.278781	0.284691	0.326377	0.877146	0	0	0.168338	-0.374302	0.396831	0.856799	1.11312	0	0
5.32	3.11629	1.33476	-1.30188	0.570002	0.162789	0.833049	0.328915	-0.0397233	-0.120725	1.09039	0.450192	0	0	0.404424	-0.167207	-0.0639112	1.21656	0.464949	0	0	-0.987992	0.202122	0.0579469	0.498385	-0.277206	0.272176	0.319799	0.900603	0	0	0.170634	-0.373778	0.401312	0.853726	1.11175	0	0
5.33	3.11407	1.33532	-1.30074	0.569813	0.16274	0.8332	0.329345	-0.0394906	-0.120104	1.08937	0.449422	0	0	0.404514	-0.167253	-0.0644804	1.21582	0.464602	0	0	-0.988823	0.201772	0.0588525	0.501464	-0.277551	0.278326	0.314804	0.895541	0	0	0.172369	-0.373051	0.403665	0.851682	1.11266	0	0
5.34	3.11225	1.33606	-1.2998	0.56959	0.162693	0.833371	0.329934	-0.0395945	-0.119709	1.08844	0.448591	0	0	0.40468	-0.167092	-0.0651225	1.21488	0.464508	0	0	-0.989308	0.201616	0.0595683	0.504351	-0.278042	0.285829	0.310003	0.89077	0	0	0.174245	-0.372219	0.40609	0.849542	1.11258	0	0
